<?xml version="1.0" encoding="utf-8"?>
<svg viewBox="0 0 256 48" xmlns="http://www.w3.org/2000/svg" width="256px" height="48px">
    <defs>
        <linearGradient gradientUnits="userSpaceOnUse" x1="141.782" y1="2.236" x2="141.782" y2="45.666" id="gradient-0" gradientTransform="matrix(0.207184, -0.978302, 4.642876, 0.983262, 12.654652, 138.652977)">
            <stop offset="0" style="stop-color: rgb(49, 80, 250);"/>
            <stop offset="1" style="stop-color: rgb(0, 232, 255);"/>
        </linearGradient>
    </defs>
    <g>
        <path style="stroke: rgb(0, 0, 0); stroke-width: 0.5px; stroke-linejoin: round; fill: rgb(0, 232, 255);" d="M 15.719 5 H 42.375 A 1 1 0 0 1 43.375 6 V 42 A 1 1 0 0 1 42.375 43 H 15.719 V 5 Z"/>
        <g fill="none">
            <path stroke="#000" stroke-linejoin="round" stroke-width="0.5" d="M5 6C5 5.44772 5.44772 5 6 5L16 5C16.5523 5 17 5.44772 17 6L17 42C17 42.5523 16.5523 43 16 43H6C5.44772 43 5 42.5523 5 42L5 6Z" style="fill: rgb(49, 80, 250);"/>
            <circle cx="11" cy="35" r="2" fill="#fff"/>
            <path stroke="#fff" stroke-linecap="round" stroke-linejoin="round" d="M 11 11 L 11 29.348" style="stroke-width: 3px;"/>
        </g>
        <rect style="stroke: rgb(0, 0, 0); fill: rgb(255, 255, 255); stroke-width: 0.5px;" x="20.251" y="11.257" width="19.523" height="26.284" rx="2" ry="2"/>
        <g transform="matrix(0.726933, 0, 0, 0.726933, 21.289293, 16.343292)" style="">
            <path d="M11.99 2C6.47 2 2 6.48 2 12s4.47 10 9.99 10C17.52 22 22 17.52 22 12S17.52 2 11.99 2zM12 20c-4.42 0-8-3.58-8-8s3.58-8 8-8 8 3.58 8 8-3.58 8-8 8zm3.5-9c.83 0 1.5-.67 1.5-1.5S16.33 8 15.5 8 14 8.67 14 9.5s.67 1.5 1.5 1.5zm-7 0c.83 0 1.5-.67 1.5-1.5S9.33 8 8.5 8 7 8.67 7 9.5 7.67 11 8.5 11zm3.5 6.5c2.33 0 4.31-1.46 5.11-3.5H6.89c.8 2.04 2.78 3.5 5.11 3.5z"/>
        </g>
        <path style="stroke: rgb(0, 0, 0); fill: rgb(255, 255, 255); stroke-width: 0.5px;" d="M 21.251 9.265 H 38.774 A 1 1 0 0 1 39.774 10.265 V 13.265 H 20.251 V 10.265 A 1 1 0 0 1 21.251 9.265 Z"/>
        <g transform="matrix(0.102165, 0, 0, 0.102165, 20.591341, 10.132779)" style="">
            <path d="M 17 11 L 7.83 11 L 13.42 5.41 L 12 4 L 4 12 L 12 20 L 13.41 18.59 L 7.83 13 L 17 13 L 17 11 Z" style="stroke: rgb(0, 0, 0); stroke-width: 1.95762px; stroke-linejoin: round; stroke-linecap: round;"/>
        </g>
        <g transform="matrix(0.102165, 0, 0, 0.102165, 22.284845, 10.132779)" style="">
            <path d="M 12 4 L 10.59 5.41 L 16.17 11 L 7 11 L 7 13 L 16.17 13 L 10.59 18.59 L 12 20 L 20 12 L 12 4 Z" style="stroke-linejoin: round; stroke-linecap: round; stroke: rgb(0, 0, 0); stroke-width: 1.95762px;"/>
        </g>
        <g transform="matrix(0.102228, 0, 0, 0.102165, 24.590065, 10.132779)" style="">
            <path d="M17.65 6.35C16.2 4.9 14.21 4 12 4c-4.42 0-7.99 3.58-7.99 8s3.57 8 7.99 8c3.73 0 6.84-2.55 7.73-6h-2.08c-.82 2.33-3.04 4-5.65 4-3.31 0-6-2.69-6-6s2.69-6 6-6c1.66 0 3.14.69 4.22 1.78L13 11h7V4l-2.35 2.35z"
                  style="stroke-linejoin: round; stroke-linecap: round; stroke-width: 1.95701px; stroke: rgb(0, 0, 0);"/>
        </g>
        <rect style="fill: rgb(161, 161, 161);" x="27.679" y="10.413" width="10.822" height="1.802" rx="0.9" ry="0.9"/>
    </g>
    <g>
        <path d="M 54.12 38.505 L 54.12 9.414 L 65.598 9.414 Q 68.907 9.414 71.237 10.671 Q 73.566 11.928 74.795 14.151 Q 76.024 16.374 76.024 19.272 Q 76.024 22.17 74.774 24.386 Q 73.524 26.602 71.159 27.837 Q 68.794 29.073 65.441 29.073 L 58.126 29.073 L 58.126 24.144 L 64.447 24.144 Q 66.223 24.144 67.38 23.526 Q 68.538 22.908 69.113 21.808 Q 69.689 20.707 69.689 19.272 Q 69.689 17.823 69.113 16.737 Q 68.538 15.65 67.373 15.046 Q 66.208 14.442 64.419 14.442 L 60.271 14.442 L 60.271 38.505 Z"
              style="fill: url(&quot;#gradient-0&quot;); text-wrap-mode: nowrap;"/>
        <path d="M 89.008 38.931 Q 85.699 38.931 83.291 37.518 Q 80.883 36.104 79.576 33.569 Q 78.27 31.033 78.27 27.681 Q 78.27 24.3 79.576 21.765 Q 80.883 19.229 83.291 17.816 Q 85.699 16.403 89.008 16.403 Q 92.318 16.403 94.726 17.816 Q 97.133 19.229 98.44 21.765 Q 99.747 24.3 99.747 27.681 Q 99.747 31.033 98.44 33.569 Q 97.133 36.104 94.726 37.518 Q 92.318 38.931 89.008 38.931 Z M 89.037 34.244 Q 90.542 34.244 91.551 33.384 Q 92.559 32.525 93.078 31.033 Q 93.596 29.542 93.596 27.639 Q 93.596 25.735 93.078 24.244 Q 92.559 22.752 91.551 21.886 Q 90.542 21.019 89.037 21.019 Q 87.517 21.019 86.487 21.886 Q 85.457 22.752 84.939 24.244 Q 84.42 25.735 84.42 27.639 Q 84.42 29.542 84.939 31.033 Q 85.457 32.525 86.487 33.384 Q 87.517 34.244 89.037 34.244 Z"
              style="fill: url(&quot;#gradient-0&quot;); text-wrap-mode: nowrap;"/>
        <path d="M 103.295 38.505 L 103.295 16.687 L 109.161 16.687 L 109.161 20.494 L 109.389 20.494 Q 109.985 18.462 111.392 17.418 Q 112.798 16.374 114.63 16.374 Q 115.085 16.374 115.61 16.431 Q 116.136 16.488 116.534 16.587 L 116.534 21.957 Q 116.107 21.829 115.355 21.729 Q 114.602 21.63 113.977 21.63 Q 112.642 21.63 111.597 22.205 Q 110.553 22.781 109.95 23.803 Q 109.346 24.826 109.346 26.161 L 109.346 38.505 Z"
              style="fill: url(&quot;#gradient-0&quot;); text-wrap-mode: nowrap;"/>
        <path d="M 131.943 16.687 L 131.943 21.232 L 118.804 21.232 L 118.804 16.687 Z M 121.787 11.46 L 127.838 11.46 L 127.838 31.8 Q 127.838 32.639 128.094 33.1 Q 128.349 33.562 128.811 33.746 Q 129.273 33.931 129.883 33.931 Q 130.31 33.931 130.736 33.853 Q 131.162 33.775 131.389 33.732 L 132.341 38.235 Q 131.886 38.377 131.062 38.569 Q 130.239 38.761 129.06 38.803 Q 126.872 38.889 125.231 38.221 Q 123.591 37.553 122.682 36.147 Q 121.773 34.741 121.787 32.596 Z"
              style="fill: url(&quot;#gradient-0&quot;); text-wrap-mode: nowrap;"/>
        <path d="M 147.203 16.687 L 147.203 21.232 L 133.737 21.232 L 133.737 16.687 Z M 136.819 38.505 L 136.819 15.11 Q 136.819 12.738 137.75 11.175 Q 138.68 9.613 140.3 8.832 Q 141.919 8.05 143.979 8.05 Q 145.371 8.05 146.528 8.264 Q 147.686 8.477 148.254 8.647 L 147.175 13.192 Q 146.819 13.079 146.301 12.979 Q 145.783 12.88 145.243 12.88 Q 143.908 12.88 143.382 13.498 Q 142.856 14.116 142.856 15.224 L 142.856 38.505 Z"
              style="fill: url(&quot;#gradient-0&quot;); text-wrap-mode: nowrap;"/>
        <path d="M 159.576 38.931 Q 156.266 38.931 153.858 37.518 Q 151.451 36.104 150.144 33.569 Q 148.837 31.033 148.837 27.681 Q 148.837 24.3 150.144 21.765 Q 151.451 19.229 153.858 17.816 Q 156.266 16.403 159.576 16.403 Q 162.885 16.403 165.293 17.816 Q 167.701 19.229 169.008 21.765 Q 170.314 24.3 170.314 27.681 Q 170.314 31.033 169.008 33.569 Q 167.701 36.104 165.293 37.518 Q 162.885 38.931 159.576 38.931 Z M 159.604 34.244 Q 161.11 34.244 162.118 33.384 Q 163.127 32.525 163.645 31.033 Q 164.164 29.542 164.164 27.639 Q 164.164 25.735 163.645 24.244 Q 163.127 22.752 162.118 21.886 Q 161.11 21.019 159.604 21.019 Q 158.084 21.019 157.054 21.886 Q 156.025 22.752 155.506 24.244 Q 154.988 25.735 154.988 27.639 Q 154.988 29.542 155.506 31.033 Q 156.025 32.525 157.054 33.384 Q 158.084 34.244 159.604 34.244 Z"
              style="fill: url(&quot;#gradient-0&quot;); text-wrap-mode: nowrap;"/>
        <path d="M 173.976 38.505 L 173.976 9.414 L 180.127 9.414 L 180.127 33.434 L 192.598 33.434 L 192.598 38.505 Z" style="fill: url(&quot;#gradient-0&quot;); text-wrap-mode: nowrap;"/>
        <path d="M 196.166 38.505 L 196.166 16.687 L 202.217 16.687 L 202.217 38.505 Z M 199.206 13.874 Q 197.856 13.874 196.897 12.976 Q 195.939 12.078 195.939 10.817 Q 195.939 9.556 196.901 8.654 Q 197.864 7.752 199.206 7.752 Q 200.555 7.752 201.514 8.65 Q 202.473 9.548 202.473 10.809 Q 202.473 12.07 201.514 12.972 Q 200.555 13.874 199.206 13.874 Z"
              style="fill: url(&quot;#gradient-0&quot;); text-wrap-mode: nowrap;"/>
        <path d="M 218.258 16.687 L 218.258 21.232 L 205.119 21.232 L 205.119 16.687 Z M 208.102 11.46 L 214.153 11.46 L 214.153 31.8 Q 214.153 32.639 214.409 33.1 Q 214.665 33.562 215.126 33.746 Q 215.588 33.931 216.199 33.931 Q 216.625 33.931 217.051 33.853 Q 217.477 33.775 217.704 33.732 L 218.656 38.235 Q 218.201 38.377 217.378 38.569 Q 216.554 38.761 215.375 38.803 Q 213.187 38.889 211.547 38.221 Q 209.906 37.553 208.997 36.147 Q 208.088 34.741 208.102 32.596 Z"
              style="fill: url(&quot;#gradient-0&quot;); text-wrap-mode: nowrap;"/>
        <path d="M 248.632 23.96 Q 248.632 28.718 246.835 32.056 Q 245.038 35.394 241.949 37.148 Q 238.859 38.903 235.01 38.903 Q 231.132 38.903 228.049 37.141 Q 224.967 35.38 223.177 32.042 Q 221.387 28.704 221.387 23.96 Q 221.387 19.201 223.177 15.863 Q 224.967 12.525 228.049 10.771 Q 231.132 9.016 235.01 9.016 Q 238.859 9.016 241.949 10.771 Q 245.038 12.525 246.835 15.863 Q 248.632 19.201 248.632 23.96 Z M 242.396 23.96 Q 242.396 20.877 241.48 18.761 Q 240.564 16.644 238.902 15.55 Q 237.24 14.457 235.01 14.457 Q 232.779 14.457 231.118 15.55 Q 229.456 16.644 228.539 18.761 Q 227.623 20.877 227.623 23.96 Q 227.623 27.042 228.539 29.158 Q 229.456 31.275 231.118 32.369 Q 232.779 33.462 235.01 33.462 Q 237.24 33.462 238.902 32.369 Q 240.564 31.275 241.48 29.158 Q 242.396 27.042 242.396 23.96 Z"
              style="fill: url(&quot;#gradient-0&quot;); text-wrap-mode: nowrap;"/>
    </g>
</svg>