<?xml version="1.0" encoding="utf-8"?>
<svg viewBox="0 0 48 48" xmlns="http://www.w3.org/2000/svg">
    <path style="stroke: rgb(0, 0, 0); stroke-width: 0.5px; stroke-linejoin: round; fill: rgb(0, 232, 255);" d="M 15.719 5 H 42.375 A 1 1 0 0 1 43.375 6 V 42 A 1 1 0 0 1 42.375 43 H 15.719 V 5 Z"/>
    <g fill="none">
        <path stroke="#000" stroke-linejoin="round" stroke-width="0.5" d="M5 6C5 5.44772 5.44772 5 6 5L16 5C16.5523 5 17 5.44772 17 6L17 42C17 42.5523 16.5523 43 16 43H6C5.44772 43 5 42.5523 5 42L5 6Z" style="fill: rgb(49, 80, 250);"/>
        <circle cx="11" cy="35" r="2" fill="#fff"/>
        <path stroke="#fff" stroke-linecap="round" stroke-linejoin="round" d="M 11 11 L 11 29.348" style="stroke-width: 3px;"/>
    </g>
    <rect style="stroke: rgb(0, 0, 0); fill: rgb(255, 255, 255); stroke-width: 0.5px;" x="20.251" y="11.257" width="19.523" height="26.284" rx="2" ry="2"/>
    <g transform="matrix(0.7269338965415955, 0, 0, 0.7269338965415955, 21.28929328918457, 16.343292236328125)" style="">
        <defs/>
        <path d="M11.99 2C6.47 2 2 6.48 2 12s4.47 10 9.99 10C17.52 22 22 17.52 22 12S17.52 2 11.99 2zM12 20c-4.42 0-8-3.58-8-8s3.58-8 8-8 8 3.58 8 8-3.58 8-8 8zm3.5-9c.83 0 1.5-.67 1.5-1.5S16.33 8 15.5 8 14 8.67 14 9.5s.67 1.5 1.5 1.5zm-7 0c.83 0 1.5-.67 1.5-1.5S9.33 8 8.5 8 7 8.67 7 9.5 7.67 11 8.5 11zm3.5 6.5c2.33 0 4.31-1.46 5.11-3.5H6.89c.8 2.04 2.78 3.5 5.11 3.5z"/>
    </g>
    <path style="stroke: rgb(0, 0, 0); fill: rgb(255, 255, 255); stroke-width: 0.5px;" d="M 21.251 9.265 H 38.774 A 1 1 0 0 1 39.774 10.265 V 13.265 H 20.251 V 10.265 A 1 1 0 0 1 21.251 9.265 Z"/>
    <g transform="matrix(0.10216499865055084, 0, 0, 0.10216499865055084, 20.591341018676758, 10.132779121398926)" style="">
        <defs/>
        <path d="M 17 11 L 7.83 11 L 13.42 5.41 L 12 4 L 4 12 L 12 20 L 13.41 18.59 L 7.83 13 L 17 13 L 17 11 Z" style="stroke: rgb(0, 0, 0); stroke-width: 1.95762px; stroke-linejoin: round; stroke-linecap: round;"/>
    </g>
    <g transform="matrix(0.10216499865055084, 0, 0, 0.10216499865055084, 22.28484535217285, 10.132779121398926)" style="">
        <defs/>
        <path d="M 12 4 L 10.59 5.41 L 16.17 11 L 7 11 L 7 13 L 16.17 13 L 10.59 18.59 L 12 20 L 20 12 L 12 4 Z" style="stroke-linejoin: round; stroke-linecap: round; stroke: rgb(0, 0, 0); stroke-width: 1.95762px;"/>
    </g>
    <g transform="matrix(0.10222800076007843, 0, 0, 0.10216499865055084, 24.590065002441406, 10.132779121398926)" style="">
        <defs/>
        <path d="M17.65 6.35C16.2 4.9 14.21 4 12 4c-4.42 0-7.99 3.58-7.99 8s3.57 8 7.99 8c3.73 0 6.84-2.55 7.73-6h-2.08c-.82 2.33-3.04 4-5.65 4-3.31 0-6-2.69-6-6s2.69-6 6-6c1.66 0 3.14.69 4.22 1.78L13 11h7V4l-2.35 2.35z" style="stroke-linejoin: round; stroke-linecap: round; stroke-width: 1.95701px; stroke: rgb(0, 0, 0);"/>
    </g>
    <rect style="fill: rgb(161, 161, 161);" x="27.679" y="10.413" width="10.822" height="1.802" rx="0.9" ry="0.9"/>
</svg>